<svg width="56" height="56" viewBox="0 0 56 56" fill="none" xmlns="http://www.w3.org/2000/svg">
<g clip-path="url(#clip0_202_24194)">
<path d="M28 55C42.9117 55 55 42.9117 55 28C55 13.0883 42.9117 1 28 1C13.0883 1 1 13.0883 1 28C1 42.9117 13.0883 55 28 55Z" stroke="#5B4140" stroke-width="2" stroke-miterlimit="10" stroke-linecap="round" stroke-linejoin="round"/>
<path d="M32.0282 45.6977C26.842 40.5874 22.4119 34.6599 18.8789 28.2019" stroke="#5B4140" stroke-width="2" stroke-miterlimit="10" stroke-linecap="round" stroke-linejoin="round"/>
<path d="M17.2085 32.0519C18.7772 32.7056 20.4188 33.1453 22.0604 33.585" stroke="#5B4140" stroke-width="2" stroke-miterlimit="10" stroke-linecap="round" stroke-linejoin="round"/>
<path d="M24.8687 30.6001C24.0374 31.9889 23.4907 33.5941 23.0874 35.1287" stroke="#5B4140" stroke-width="2" stroke-miterlimit="10" stroke-linecap="round" stroke-linejoin="round"/>
<path d="M10.8447 26.5408C11.1231 22.2169 12.26 17.8271 14.5716 14.1957C15.347 21.3864 26.6383 22.2464 29.461 27.9848C36.0941 41.4699 17.7066 48.8219 11.9706 34.8063C10.9509 32.19 10.7191 29.3642 10.8447 26.5408Z" stroke="#5B4140" stroke-width="2" stroke-miterlimit="10" stroke-linecap="round" stroke-linejoin="round"/>
<path d="M48 19.1084L38.375 30.1084L34 25.1084" stroke="#5B4140" stroke-width="2" stroke-linecap="round" stroke-linejoin="round"/>
</g>
<defs>
<clipPath id="clip0_202_24194">
<rect width="56" height="56" fill="white"/>
</clipPath>
</defs>
</svg>
