<svg width="60" height="60" viewBox="0 0 60 60" fill="none" xmlns="http://www.w3.org/2000/svg">
<g clip-path="url(#clip0_202_24163)">
<path d="M29.9286 58.8571C45.9054 58.8571 58.8571 45.9054 58.8571 29.9286C58.8571 13.9518 45.9054 1 29.9286 1C13.9518 1 1 13.9518 1 29.9286C1 45.9054 13.9518 58.8571 29.9286 58.8571Z" stroke="#5B4140" stroke-width="2" stroke-miterlimit="10" stroke-linecap="round" stroke-linejoin="round"/>
<path d="M25.5 17.6982C25.7769 18.0449 26.1185 18.4763 26.5068 18.9766C27.5773 20.3554 29.0025 22.2509 30.4258 24.3213C31.8516 26.3953 33.2621 28.6262 34.3125 30.6787C35.385 32.7744 35.9999 34.5308 36 35.708C36 40.8073 31.396 45.1084 25.5 45.1084C19.604 45.1084 15 40.8073 15 35.708C15.0001 34.5308 15.615 32.7744 16.6875 30.6787C17.7379 28.6262 19.1484 26.3953 20.5742 24.3213C21.9975 22.2509 23.4227 20.3554 24.4932 18.9766C24.8815 18.4763 25.2231 18.0449 25.5 17.6982Z" stroke="#5B4140" stroke-width="2"/>
<path d="M39.1416 12.916C39.6965 13.6467 40.434 14.6499 41.1699 15.7441C41.9085 16.8423 42.6324 18.0142 43.168 19.084C43.7246 20.1959 43.9999 21.0489 44 21.5615C44 24.0001 41.8368 26.1084 39 26.1084C36.1632 26.1084 34 24.0001 34 21.5615C34.0001 21.0489 34.2754 20.1959 34.832 19.084C35.3676 18.0142 36.0915 16.8423 36.8301 15.7441C37.566 14.6499 38.3035 13.6467 38.8584 12.916C38.9066 12.8526 38.9547 12.7916 39 12.7324C39.0453 12.7916 39.0934 12.8526 39.1416 12.916Z" stroke="#5B4140" stroke-width="2"/>
</g>
<defs>
<clipPath id="clip0_202_24163">
<rect width="60" height="60" fill="white"/>
</clipPath>
</defs>
</svg>
