<svg width="60" height="60" viewBox="0 0 60 60" fill="none" xmlns="http://www.w3.org/2000/svg">
<g clip-path="url(#clip0_202_24169)">
<path d="M30.0008 58.9286C45.9776 58.9286 58.9294 45.9768 58.9294 30C58.9294 14.0232 45.9776 1.07141 30.0008 1.07141C14.024 1.07141 1.07227 14.0232 1.07227 30C1.07227 45.9768 14.024 58.9286 30.0008 58.9286Z" stroke="#5B4140" stroke-width="2" stroke-miterlimit="10" stroke-linecap="round" stroke-linejoin="round"/>
<path d="M26.925 32.85C26.925 26.7 21.9 21.675 15.75 21.675C21.9 21.675 26.925 16.65 26.925 10.5C26.925 16.65 31.95 21.675 38.1 21.675C31.95 21.675 26.925 26.7 26.925 32.85Z" stroke="#5B4140" stroke-width="2" stroke-miterlimit="10" stroke-linecap="round" stroke-linejoin="round"/>
<path d="M36.7508 35.6999C36.7508 33.1499 34.7258 31.1249 32.1758 31.1249C34.7258 31.1249 36.7508 29.0999 36.7508 26.5499C36.7508 29.0999 38.7758 31.1249 41.3258 31.1249C38.8508 31.1249 36.7508 33.2249 36.7508 35.6999Z" stroke="#5B4140" stroke-width="2" stroke-miterlimit="10" stroke-linecap="round" stroke-linejoin="round"/>
<path d="M48.5234 45.6802C48.5234 45.6802 42.9874 40.5699 29.9988 40.5699C17.0103 40.5699 11.4742 45.6802 11.4742 45.6802" stroke="#5B4140" stroke-width="2" stroke-linecap="round"/>
<path d="M43.8984 50.1526C43.8984 50.1526 39.7447 46.3183 29.9993 46.3183C20.2539 46.3183 16.1001 50.1526 16.1001 50.1526" stroke="#5B4140" stroke-width="2" stroke-linecap="round"/>
</g>
<defs>
<clipPath id="clip0_202_24169">
<rect width="60" height="60" fill="white"/>
</clipPath>
</defs>
</svg>
