<svg width="60" height="60" viewBox="0 0 60 60" fill="none" xmlns="http://www.w3.org/2000/svg">
<g clip-path="url(#clip0_194_15848)">
<path d="M29.9286 58.8571C45.9054 58.8571 58.8571 45.9054 58.8571 29.9286C58.8571 13.9518 45.9054 1 29.9286 1C13.9518 1 1 13.9518 1 29.9286C1 45.9054 13.9518 58.8571 29.9286 58.8571Z" stroke="#5B4140" stroke-width="2" stroke-miterlimit="10" stroke-linecap="round" stroke-linejoin="round"/>
<path d="M50.0735 34.6469C44.9707 34.6469 44.9707 32.1577 39.9924 32.1577C34.8895 32.1577 34.8896 34.6469 29.9112 34.6469C24.8084 34.6469 24.8084 32.1577 19.7056 32.1577C14.6028 32.1577 14.6028 34.6469 9.5 34.6469" stroke="#5B4140" stroke-width="2" stroke-miterlimit="10" stroke-linecap="round" stroke-linejoin="round"/>
<path d="M50.0735 30.9132C44.9707 30.9132 44.9707 28.4241 39.9924 28.4241C34.8895 28.4241 34.8896 30.9132 29.9112 30.9132C24.8084 30.9132 24.8084 28.4241 19.7056 28.4241C14.6028 28.4241 14.6028 30.9132 9.5 30.9132" stroke="#5B4140" stroke-width="2" stroke-miterlimit="10" stroke-linecap="round" stroke-linejoin="round"/>
<path d="M30.4083 24.317C28.6659 24.317 27.2969 22.948 27.2969 21.2056" stroke="#5B4140" stroke-width="2" stroke-miterlimit="10" stroke-linecap="round" stroke-linejoin="round"/>
<path d="M34.6403 21.9523C34.6403 22.8236 34.3914 23.5703 34.018 24.1926C33.1468 25.8105 31.5288 26.8062 29.6619 26.8062C26.9238 26.8062 24.6836 24.566 24.6836 21.8279C24.6836 19.0898 29.6619 11 29.6619 11C29.6619 11 31.5288 13.987 32.8979 16.974C33.8935 18.9653 34.6403 20.8322 34.6403 21.9523Z" stroke="#5B4140" stroke-width="2" stroke-miterlimit="10" stroke-linecap="round" stroke-linejoin="round"/>
<path d="M14.8516 14.4849V24.566" stroke="#5B4140" stroke-width="2" stroke-miterlimit="10" stroke-linecap="round" stroke-linejoin="round"/>
<path d="M17.4656 21.8281L14.8519 24.5662L12.2383 21.8281" stroke="#5B4140" stroke-width="2" stroke-miterlimit="10" stroke-linecap="round" stroke-linejoin="round"/>
<path d="M44.5977 14.4849V24.566" stroke="#5B4140" stroke-width="2" stroke-miterlimit="10" stroke-linecap="round" stroke-linejoin="round"/>
<path d="M47.3361 21.8281L44.598 24.5662L41.9844 21.8281" stroke="#5B4140" stroke-width="2" stroke-miterlimit="10" stroke-linecap="round" stroke-linejoin="round"/>
<path d="M45.5 47.7833C45.5 48.1333 45.3649 48.4833 45.2297 48.8333C44.8243 49.5333 44.0135 50 43.0676 50C41.7162 50 40.5 49.0667 40.5 47.7833C40.5 46.6167 43.0676 43 43.0676 43C43.0676 43 44.0135 44.2833 44.6892 45.6833C45.0946 46.5 45.5 47.3167 45.5 47.7833Z" stroke="#5B4140" stroke-width="2" stroke-miterlimit="10" stroke-linecap="round" stroke-linejoin="round"/>
<path d="M20.5 48.7833C20.5 49.1333 20.3649 49.4833 20.2297 49.8333C19.8243 50.5333 19.0135 51 18.0676 51C16.7162 51 15.5 50.0667 15.5 48.7833C15.5 47.6167 18.0676 44 18.0676 44C18.0676 44 19.0135 45.2833 19.6892 46.6833C20.0946 47.5 20.5 48.3167 20.5 48.7833Z" stroke="#5B4140" stroke-width="2" stroke-miterlimit="10" stroke-linecap="round" stroke-linejoin="round"/>
<path d="M32.5 45.8333C32.5 46.3333 32.3378 46.8333 32.1757 47.3333C31.6892 48.3333 30.7162 49 29.5811 49C27.9595 49 26.5 47.6667 26.5 45.8333C26.5 44.1667 29.5811 39 29.5811 39C29.5811 39 30.7162 40.8333 31.527 42.8333C32.0135 44 32.5 45.1667 32.5 45.8333Z" stroke="#5B4140" stroke-width="2" stroke-miterlimit="10" stroke-linecap="round" stroke-linejoin="round"/>
</g>
<defs>
<clipPath id="clip0_194_15848">
<rect width="60" height="60" fill="white"/>
</clipPath>
</defs>
</svg>
