<svg width="58" height="58" viewBox="0 0 58 58" fill="none" xmlns="http://www.w3.org/2000/svg">
<g clip-path="url(#clip0_194_15901)">
<path d="M29 57C44.464 57 57 44.464 57 29C57 13.536 44.464 1 29 1C13.536 1 1 13.536 1 29C1 44.464 13.536 57 29 57Z" stroke="#5B4140" stroke-width="2" stroke-miterlimit="10" stroke-linecap="round" stroke-linejoin="round"/>
<path d="M3 39.0791C5.17613 37.0944 8.64847 34.5746 12.5182 35.0611C20.1157 36.0145 21.6958 47.6015 28.385 47.9907C33.3239 48.2728 34.6579 42.095 43.0313 39.332C47.7431 37.7754 52.0859 38.1548 55 38.6996" stroke="#5B4140" stroke-width="2" stroke-miterlimit="10"/>
<path d="M1 33.3644C3.77 31.6344 8.38 29.2944 14.29 29.0244C24.52 28.5644 29.41 34.7444 40.35 35.1144C44.09 35.2444 49.8 34.7344 57 31.1944" stroke="#5B4140" stroke-width="2" stroke-miterlimit="10"/>
<path d="M24 12.1094V26.1094" stroke="#5B4140" stroke-width="2" stroke-linecap="round" stroke-linejoin="round"/>
<path d="M31 19.1094L24 26.1094L17 19.1094" stroke="#5B4140" stroke-width="2" stroke-linecap="round" stroke-linejoin="round"/>
<path d="M42.1416 13.917C42.6965 14.6476 43.434 15.6508 44.1699 16.7451C44.9085 17.8433 45.6324 19.0152 46.168 20.085C46.7246 21.1968 46.9999 22.0499 47 22.5625C47 25.001 44.8368 27.1094 42 27.1094C39.1632 27.1094 37 25.001 37 22.5625C37.0001 22.0499 37.2754 21.1968 37.832 20.085C38.3676 19.0152 39.0915 17.8433 39.8301 16.7451C40.566 15.6508 41.3035 14.6476 41.8584 13.917C41.9066 13.8535 41.9547 13.7926 42 13.7334C42.0453 13.7926 42.0934 13.8535 42.1416 13.917Z" stroke="#5B4140" stroke-width="2"/>
</g>
<defs>
<clipPath id="clip0_194_15901">
<rect width="58" height="58" fill="white"/>
</clipPath>
</defs>
</svg>
