<svg width="60" height="60" viewBox="0 0 60 60" fill="none" xmlns="http://www.w3.org/2000/svg">
<g clip-path="url(#clip0_194_15839)">
<path d="M29.9286 58.8571C45.9054 58.8571 58.8571 45.9054 58.8571 29.9286C58.8571 13.9518 45.9054 1 29.9286 1C13.9518 1 1 13.9518 1 29.9286C1 45.9054 13.9518 58.8571 29.9286 58.8571Z" stroke="#5B4140" stroke-width="2" stroke-miterlimit="10" stroke-linecap="round" stroke-linejoin="round"/>
<path d="M19 23C19 20.7705 17.2295 19 15 19C17.2295 19 19 17.2295 19 15C19 17.2295 20.7705 19 23 19C20.8361 19 19 20.8361 19 23Z" stroke="#5B4140" stroke-width="1.5" stroke-miterlimit="10" stroke-linecap="round" stroke-linejoin="round"/>
<path d="M39 17C39 14.7705 37.2295 13 35 13C37.2295 13 39 11.2295 39 9C39 11.2295 40.7705 13 43 13C40.8361 13 39 14.8361 39 17Z" stroke="#5B4140" stroke-width="1.5" stroke-miterlimit="10" stroke-linecap="round" stroke-linejoin="round"/>
<path d="M28.3125 19.0049C28.7563 18.9716 29.314 19.1068 29.9453 19.3252C31.2732 19.7846 33.4977 20.8265 37.1055 22.8682C40.8956 25.0131 42.6733 27.5184 43.4561 29.9658C44.0534 31.8337 44.0472 33.6394 44.0176 35H48C48.5522 35 48.9999 35.4478 49 36V45C49 45.5177 48.6067 45.9438 48.1025 45.9951L48 46H11L10.8975 45.9951C10.427 45.9472 10.0528 45.573 10.0049 45.1025L10 45V36C10.0001 35.4478 10.4478 35 11 35H14.2148C14.152 34.7352 14.0923 34.4331 14.0557 34.0996C13.9241 32.9016 14.0813 31.3742 15.1318 29.6455C15.714 28.6876 16.3359 27.9978 17.0527 27.5156C17.7727 27.0314 18.5229 26.8011 19.2871 26.6689C20.0169 26.5428 20.8484 26.4946 21.6592 26.4199C22.4995 26.3426 23.4225 26.2308 24.4814 25.9785C25.8746 25.6465 26.5979 24.7456 26.9668 23.6631C27.3512 22.5345 27.3213 21.2567 27.168 20.4414V20.4404C27.1124 20.1806 27.1121 19.7969 27.3955 19.4512C27.6901 19.0922 28.0984 19.0209 28.3125 19.0049ZM12 44H47V37H12V44ZM29.2598 21.2041C29.3053 22.1384 29.2205 23.2488 28.8594 24.3086C28.3203 25.8903 27.1479 27.3988 24.9453 27.9238C23.7569 28.207 22.7294 28.3305 21.8428 28.4121C20.9266 28.4965 20.2533 28.5316 19.6279 28.6396C19.0371 28.7418 18.581 28.8978 18.1689 29.1748C17.7537 29.4541 17.3164 29.902 16.8408 30.6846C16.0406 32.0015 15.955 33.0792 16.043 33.8809C16.0884 34.2946 16.1825 34.6542 16.2754 34.9717C16.2781 34.981 16.2813 34.9904 16.2842 35H42.0156C42.0433 33.646 42.0597 32.1638 41.5518 30.5752C40.9391 28.6595 39.5232 26.5338 36.1211 24.6084C32.5364 22.5798 30.4411 21.6124 29.292 21.2148C29.2813 21.2111 29.2703 21.2077 29.2598 21.2041Z" fill="#5B4140"/>
</g>
<defs>
<clipPath id="clip0_194_15839">
<rect width="60" height="60" fill="white"/>
</clipPath>
</defs>
</svg>
