<svg width="56" height="56" viewBox="0 0 56 56" fill="none" xmlns="http://www.w3.org/2000/svg">
<g clip-path="url(#clip0_194_15888)">
<path d="M20.817 29.6606V37.5586C20.817 39.3544 19.639 40.9475 17.9107 41.4593L7.37695 44.8386" stroke="#5B4140" stroke-width="2" stroke-miterlimit="10"/>
<path d="M34.6426 30.4331V37.549C34.6426 39.3448 35.8205 40.9379 37.5488 41.4497L48.7102 44.8966" stroke="#5B4140" stroke-width="2" stroke-miterlimit="10"/>
<path d="M27.9993 55.0345C42.9301 55.0345 55.0338 42.9308 55.0338 28.0001C55.0338 13.0693 42.9301 0.965576 27.9993 0.965576C13.0686 0.965576 0.964844 13.0693 0.964844 28.0001C0.964844 42.9308 13.0686 55.0345 27.9993 55.0345Z" stroke="#5B4140" stroke-width="2" stroke-miterlimit="10" stroke-linecap="round" stroke-linejoin="round"/>
<path d="M10.1289 7.72412L11.2006 12.9862C13.682 22.7186 20.3827 32.6441 28.2517 32.6441C35.9082 32.6441 42.4544 23.2496 45.0903 13.7779L45.3992 12.7641L46.4903 8.27447" stroke="#5B4140" stroke-width="2" stroke-miterlimit="10"/>
<path d="M23.5586 22.3325C23.5586 22.3325 28.0482 24.7656 32.4414 22.3325" stroke="#5B4140" stroke-width="2" stroke-miterlimit="10" stroke-linecap="round" stroke-linejoin="round"/>
<path d="M29.7451 21.6877C30.1695 21.7082 30.5606 21.8678 30.9053 22.0901C31.2505 22.3127 31.5326 22.5881 31.7305 22.8127C31.7438 22.8279 31.7551 22.8441 31.7676 22.8586C30.7677 23.7642 29.8214 24.2161 28.9668 24.3938C28.0202 24.5905 27.1496 24.4611 26.4004 24.1936C25.6479 23.9248 25.0233 23.5183 24.585 23.175C24.4397 23.0613 24.3167 22.9547 24.2168 22.8645C24.2309 22.848 24.2445 22.8301 24.2598 22.8127C24.4576 22.5881 24.7397 22.3127 25.085 22.0901C25.4296 21.8679 25.8207 21.7082 26.2451 21.6877C26.6616 21.6677 27.1503 21.7797 27.7051 22.1643L27.834 22.2532H28.1562L28.2852 22.1643C28.84 21.7797 29.3286 21.6677 29.7451 21.6877Z" fill="#5B4140" stroke="#5B4140"/>
<path d="M28.4832 10.7268C28.4832 10.7268 27.6915 13.5944 26.6488 15.1489C26.3398 15.6027 26.5329 16.1916 27.0929 16.4234C27.4888 16.5875 28.0777 16.7323 28.966 16.8385" stroke="#5B4140" stroke-width="2" stroke-miterlimit="10" stroke-linecap="round" stroke-linejoin="round"/>
<path d="M10 27.1084C10 25.4363 8.67213 24.1084 7 24.1084C8.67213 24.1084 10 22.7805 10 21.1084C10 22.7805 11.3279 24.1084 13 24.1084C11.377 24.1084 10 25.4854 10 27.1084Z" stroke="#5B4140" stroke-miterlimit="10" stroke-linecap="round" stroke-linejoin="round"/>
<path d="M11 41C11 38.7705 9.22951 37 7 37C9.22951 37 11 35.2295 11 33C11 35.2295 12.7705 37 15 37C12.8361 37 11 38.8361 11 41Z" stroke="#5B4140" stroke-miterlimit="10" stroke-linecap="round" stroke-linejoin="round"/>
<path d="M47 33C47 30.7705 45.2295 29 43 29C45.2295 29 47 27.2295 47 25C47 27.2295 48.7705 29 51 29C48.8361 29 47 30.8361 47 33Z" stroke="#5B4140" stroke-miterlimit="10" stroke-linecap="round" stroke-linejoin="round"/>
</g>
<defs>
<clipPath id="clip0_194_15888">
<rect width="56" height="56" fill="white"/>
</clipPath>
</defs>
</svg>
