<svg width="60" height="60" viewBox="0 0 60 60" fill="none" xmlns="http://www.w3.org/2000/svg">
<g clip-path="url(#clip0_202_14245)">
<path d="M30.0008 58.9286C45.9776 58.9286 58.9294 45.9768 58.9294 30C58.9294 14.0232 45.9776 1.07141 30.0008 1.07141C14.024 1.07141 1.07227 14.0232 1.07227 30C1.07227 45.9768 14.024 58.9286 30.0008 58.9286Z" stroke="#5B4140" stroke-width="2" stroke-miterlimit="10" stroke-linecap="round" stroke-linejoin="round"/>
<path d="M16.4492 23.5892C15.8138 23.8643 15.2134 24.1344 14.6539 24.3955C13.2177 23.6772 13.4571 20.2068 13.7563 18.5613C15.1513 17.9869 16.4973 17.4703 17.7956 17.0077M16.4492 23.5892C15.8508 22.0744 15.2823 18.6373 17.7956 17.0077M16.4492 23.5892C17.4213 23.1684 18.4754 22.7358 19.5908 22.3058M17.7956 17.0077C19.0355 16.566 20.2319 16.1735 21.386 15.8271M17.7956 17.0077L21.386 15.8271M21.386 15.8271C22.1526 15.597 22.9005 15.3871 23.6301 15.1966M19.5908 22.3058C20.0396 19.8617 21.4758 15.0183 23.6301 15.1966M19.5908 22.3058C20.8673 21.8136 22.2241 21.3247 23.6301 20.8602M23.6301 15.1966C25.7229 14.6502 27.665 14.2627 29.4645 14.0115M23.6301 20.8602C24.8269 18.6608 27.6693 14.2118 29.4645 14.0115M23.6301 20.8602C24.942 20.4268 26.2969 20.0147 27.6693 19.6413M29.4645 14.0115C30.5644 13.858 31.611 13.7553 32.6062 13.6983M29.4645 14.0115L32.6062 13.6983M32.6062 13.6983C34.0604 13.6151 35.4049 13.6293 36.6454 13.7249M36.6454 13.7249C33.3542 15.1595 26.9512 18.3512 27.6693 19.6413M36.6454 13.7249C39.6034 13.9527 41.9707 14.6427 43.8263 15.5747M27.6693 19.6413C29.6027 19.1151 31.571 18.6656 33.5038 18.3409M33.5038 18.3409C40.0747 17.237 46.2345 17.5759 49.212 21.2539C48.6025 19.3703 46.9304 17.1338 43.8263 15.5747M33.5038 18.3409C36.1907 16.9412 42.0168 14.4283 43.8263 15.5747" stroke="#5B4140" stroke-width="2" stroke-linecap="round"/>
<path d="M14.3691 34.2737C19.2025 38.607 35.3691 45.7737 44.3691 27.7737" stroke="#5B4140" stroke-width="2" stroke-linecap="round"/>
<path d="M42.8691 31.2737C43.3691 32.1186 47.8691 33.8727 49.8691 33.2737" stroke="#5B4140" stroke-width="2" stroke-linecap="round"/>
<path d="M39.8691 34.2737C39.8691 35.7023 41.0691 38.7023 45.8691 39.2737" stroke="#5B4140" stroke-width="2" stroke-linecap="round"/>
<path d="M35.8691 37.7737C36.2025 39.2737 37.6691 42.3737 40.8691 42.7737" stroke="#5B4140" stroke-width="2" stroke-linecap="round"/>
<path d="M31.3691 39.2737C31.7025 41.4403 33.3691 44.7737 34.8691 46.2737" stroke="#5B4140" stroke-width="2" stroke-linecap="round"/>
<path d="M27.3691 39.7737C27.3691 41.2737 27.3691 43.7737 25.3691 46.7737" stroke="#5B4140" stroke-width="2" stroke-linecap="round"/>
<path d="M21.8691 38.7737C21.5358 39.9403 19.8691 42.2737 18.3691 42.7737M17.3691 36.7737C17.0358 37.4403 15.3691 38.7737 14.3691 39.2737" stroke="#5B4140" stroke-width="2" stroke-linecap="round"/>
</g>
<defs>
<clipPath id="clip0_202_14245">
<rect width="60" height="60" fill="white"/>
</clipPath>
</defs>
</svg>
