<svg width="60" height="60" viewBox="0 0 60 60" fill="none" xmlns="http://www.w3.org/2000/svg">
<g clip-path="url(#clip0_202_14228)">
<path d="M29.9286 58.8571C45.9054 58.8571 58.8571 45.9054 58.8571 29.9286C58.8571 13.9518 45.9054 1 29.9286 1C13.9518 1 1 13.9518 1 29.9286C1 45.9054 13.9518 58.8571 29.9286 58.8571Z" stroke="#5B4140" stroke-width="2" stroke-miterlimit="10" stroke-linecap="round" stroke-linejoin="round"/>
<path d="M50 45C44.8436 45 44.8436 42 39.8129 42C34.6564 42 34.6564 45 29.6258 45C24.4693 45 24.4693 42 19.3129 42C14.1564 42 14.1564 45 9 45" stroke="#5B4140" stroke-width="2" stroke-miterlimit="10" stroke-linecap="round" stroke-linejoin="round"/>
<path d="M50 41C44.8436 41 44.8436 39 39.8129 39C34.6564 39 34.7306 40 29.7 40C24.5435 40 24.4693 39 19.3129 39C14.1564 39 14.1564 41 9 41" stroke="#5B4140" stroke-width="2" stroke-miterlimit="10" stroke-linecap="round" stroke-linejoin="round"/>
<path d="M50 37C44.8436 37 44.2247 35.4883 40.2 35C36.2746 34.5238 34.7306 34.5 29.7 34.5C24.5435 34.5 23.345 34.516 19.3129 35C15.2396 35.489 14.1564 37 9 37" stroke="#5B4140" stroke-width="2" stroke-miterlimit="10" stroke-linecap="round" stroke-linejoin="round"/>
<path d="M15.9102 29.0211V15" stroke="#5B4140" stroke-width="2" stroke-miterlimit="10" stroke-linecap="round" stroke-linejoin="round"/>
<path d="M13.1309 17.6526L15.9098 15L18.5624 17.6526" stroke="#5B4140" stroke-width="2" stroke-miterlimit="10" stroke-linecap="round" stroke-linejoin="round"/>
<path d="M29.2988 24.6631V10.6421" stroke="#5B4140" stroke-width="2" stroke-miterlimit="10" stroke-linecap="round" stroke-linejoin="round"/>
<path d="M26.6465 13.2947L29.2991 10.6421L31.9518 13.2947" stroke="#5B4140" stroke-width="2" stroke-miterlimit="10" stroke-linecap="round" stroke-linejoin="round"/>
<path d="M42.6895 29.0211V15" stroke="#5B4140" stroke-width="2" stroke-miterlimit="10" stroke-linecap="round" stroke-linejoin="round"/>
<path d="M40.0371 17.6526L42.6897 15L45.4687 17.6526" stroke="#5B4140" stroke-width="2" stroke-miterlimit="10" stroke-linecap="round" stroke-linejoin="round"/>
</g>
<defs>
<clipPath id="clip0_202_14228">
<rect width="60" height="60" fill="white"/>
</clipPath>
</defs>
</svg>
