<svg width="60" height="60" viewBox="0 0 60 60" fill="none" xmlns="http://www.w3.org/2000/svg">
<g clip-path="url(#clip0_194_15911)">
<path d="M29.9989 58.9275C45.9757 58.9275 58.9275 45.9757 58.9275 29.9989C58.9275 14.0221 45.9757 1.07031 29.9989 1.07031C14.0221 1.07031 1.07031 14.0221 1.07031 29.9989C1.07031 45.9757 14.0221 58.9275 29.9989 58.9275Z" stroke="#5B4140" stroke-width="2" stroke-miterlimit="10" stroke-linecap="round" stroke-linejoin="round"/>
<path d="M9.75 41.25C14.7047 41.25 14.7047 45 19.6593 45C24.614 45 24.614 41.25 29.5687 41.25C34.5234 41.25 34.5234 45 39.478 45C44.4327 45 44.5453 41.25 49.5 41.25" stroke="#5B4140" stroke-width="2" stroke-miterlimit="10" stroke-linecap="round" stroke-linejoin="round"/>
<path d="M19.6602 50.3907C24.6148 50.3907 24.6148 46.6407 29.5695 46.6407C34.5242 46.6407 34.5242 50.3907 39.4789 50.3907" stroke="#5B4140" stroke-width="2" stroke-miterlimit="10" stroke-linecap="round" stroke-linejoin="round"/>
<path d="M18.0527 14.5C16.3861 16 14.0527 20 18.0527 24C23.0527 29 17.0527 33.5 16.0527 34.5M16.0527 34.5L15.0527 31M16.0527 34.5H19.8913" stroke="#5B4140" stroke-width="2" stroke-linecap="round"/>
<path d="M30.0176 14.5C28.3509 16 26.0176 20 30.0176 24C35.0176 29 29.0176 33.5 28.0176 34.5M28.0176 34.5L27.0176 31M28.0176 34.5H31.8562" stroke="#5B4140" stroke-width="2" stroke-linecap="round"/>
<path d="M41.9824 14.5C40.3157 16 37.9824 20 41.9824 24C46.9824 29 40.9824 33.5 39.9824 34.5M39.9824 34.5L38.9824 31M39.9824 34.5H43.821" stroke="#5B4140" stroke-width="2" stroke-linecap="round"/>
</g>
<defs>
<clipPath id="clip0_194_15911">
<rect width="60" height="60" fill="white"/>
</clipPath>
</defs>
</svg>
