<svg width="60" height="60" viewBox="0 0 60 60" fill="none" xmlns="http://www.w3.org/2000/svg">
<circle cx="30" cy="30" r="29.25" stroke="#5B4140" stroke-width="1.5"/>
<path d="M11.4238 33.8112C16.0944 23.1249 37.6866 13.2884 49.6376 33.8112M11.4238 33.8112C13.5585 32.7443 15.7699 30.6284 20.2171 27.3918C22.3952 25.8066 24.3261 25.1092 26.5804 24.6735M11.4238 33.8112C19.3808 43.9683 29.7522 44.1921 39.3775 41.6552C44.6036 39.3876 47.2121 37.7752 49.6376 33.8112M49.6376 33.8112C45.9496 30.158 44.4701 26.2538 35.7765 24.6735M26.5804 24.6735C24.9037 26.4341 24.3978 31.7374 27.3904 33.8112C30.0311 35.6413 34.4168 35.0324 36.1086 32.3818C37.4864 30.2231 36.7395 26.0392 35.7765 24.6735M26.5804 24.6735C30.4571 23.9241 32.2689 24.3059 35.7765 24.6735" stroke="#5B4140" stroke-width="2"/>
<path d="M49.3815 33.5461C48.7509 32.6528 48.1518 27.1928 48.9085 22.9048" stroke="#5B4140" stroke-width="2" stroke-linecap="round"/>
<path d="M44.795 27.3536C44.1644 26.4603 41.1332 21.6917 44.0122 16.0625" stroke="#5B4140" stroke-width="2" stroke-linecap="round"/>
<path d="M38.5339 22.9048C37.9033 22.0114 34.6056 18.6664 37.4847 13.0372" stroke="#5B4140" stroke-width="2" stroke-linecap="round"/>
<path d="M32.2717 21.708C31.641 20.8147 27.4185 17.3118 30.2976 11.6826" stroke="#5B4140" stroke-width="2" stroke-linecap="round"/>
<path d="M25.4844 21.8302C24.8538 20.9369 21.838 18.3274 23.0466 13.8229" stroke="#5B4140" stroke-width="2" stroke-linecap="round"/>
<path d="M19.8794 24.4122C19.2488 23.5188 15.9584 22.3947 16.233 17.7253" stroke="#5B4140" stroke-width="2" stroke-linecap="round"/>
<path d="M15.0879 27.7556C14.4573 26.8623 11.8948 26.8443 10.5215 23.054" stroke="#5B4140" stroke-width="2" stroke-linecap="round"/>
<path d="M11.7359 33.5461C11.1053 32.6527 7.77373 33.2714 6.40039 29.4811" stroke="#5B4140" stroke-width="2" stroke-linecap="round"/>
</svg>
