<svg width="60" height="60" viewBox="0 0 60 60" fill="none" xmlns="http://www.w3.org/2000/svg">
<path d="M29.999 2.07227C45.4235 2.07234 57.9277 14.5765 57.9277 30.001C57.9277 45.4254 45.4234 57.9296 29.999 57.9297C14.5745 57.9297 2.07039 45.4254 2.07031 30.001C2.07031 14.5765 14.5745 2.07227 29.999 2.07227Z" stroke="#5B4140" stroke-width="2"/>
<path d="M21.4136 49.2502C18.2757 49.1867 12 45.4464 12 30.9934L21.4136 27" stroke="#5B4140" stroke-width="2" stroke-linecap="round"/>
<path d="M21.4126 49.2502C24.5505 49.1867 30.8262 45.4464 30.8262 30.9934L21.4126 27" stroke="#5B4140" stroke-width="2" stroke-linecap="round"/>
<path d="M17.752 37.3399L20.9615 41.3338L26.1197 34.9154" stroke="#5B4140" stroke-width="2" stroke-linecap="round" stroke-linejoin="round"/>
<path d="M50.2762 25.3542C50.511 20.341 47.8319 10.3146 35.2369 10.3146C26.501 10.3146 21.501 17 22.0011 24.5" stroke="#5B4140" stroke-width="2" stroke-linecap="round"/>
<path d="M34.0449 30.9776C37.694 29.7496 45.0989 25.5635 45.5259 18.6427C46.6473 19.7284 48.388 22.861 46.3801 26.7058C46.4513 27.8093 47.1705 30.2085 49.4773 30.9776C49.5485 31.3693 49.1356 32.1953 46.9141 32.3662L47.9287 35.0896C47.4127 35.321 46.2096 35.645 45.5259 35.0896" stroke="#5B4140" stroke-width="2" stroke-linecap="round" stroke-linejoin="round"/>
<path d="M46.9141 36.9572L45.5261 37.8647V40.8553C43.9774 41.5673 39.4811 42.265 33.8848 39.3601" stroke="#5B4140" stroke-width="2" stroke-linecap="round" stroke-linejoin="round"/>
<path d="M37.4099 46.6775C37.1785 46.2147 36.9934 44.4773 38.1041 41.2306" stroke="#5B4140" stroke-width="2" stroke-linecap="round" stroke-linejoin="round"/>
</svg>
